<svg xmlns="http://www.w3.org/2000/svg" version="1.1" width="323" height="53">
<path d="M 2.878906 26.319336 L 2.878906 19.412109 L 6.729980 19.412109 L 6.729980 20.335938 L 3.738281 20.335938 L 3.738281 26.319336 Z " fill="rgb(0, 0, 0)" fill-opacity="1.000000" />
<path d="M 2.878906 39.319336 L 2.878906 25.300781 L 3.738281 25.300781 L 3.738281 39.319336 Z " fill="rgb(0, 0, 0)" fill-opacity="1.000000" />
<path d="M 2.878906 46.335938 L 2.878906 38.300781 L 3.738281 38.300781 L 3.738281 45.412109 L 6.729980 45.412109 L 6.729980 46.335938 Z " fill="rgb(0, 0, 0)" fill-opacity="1.000000" />
<path d="M 6.892578 46.335938 L 6.892578 45.412109 L 13.729980 45.412109 L 13.729980 46.335938 Z " fill="rgb(0, 0, 0)" fill-opacity="1.000000" />
<path d="M 13.892578 46.335938 L 13.892578 45.412109 L 20.729980 45.412109 L 20.729980 46.335938 Z " fill="rgb(0, 0, 0)" fill-opacity="1.000000" />
<path d="M 20.892578 46.335938 L 20.892578 45.412109 L 27.729980 45.412109 L 27.729980 46.335938 Z " fill="rgb(0, 0, 0)" fill-opacity="1.000000" />
<path d="M 27.892578 46.335938 L 27.892578 45.412109 L 34.729980 45.412109 L 34.729980 46.335938 Z " fill="rgb(0, 0, 0)" fill-opacity="1.000000" />
<path d="M 34.892578 46.335938 L 34.892578 45.412109 L 41.729980 45.412109 L 41.729980 46.335938 Z " fill="rgb(0, 0, 0)" fill-opacity="1.000000" />
<path d="M 41.892578 46.335938 L 41.892578 45.412109 L 48.729980 45.412109 L 48.729980 46.335938 Z " fill="rgb(0, 0, 0)" fill-opacity="1.000000" />
<path d="M 48.892578 46.335938 L 48.892578 45.412109 L 55.729980 45.412109 L 55.729980 46.335938 Z " fill="rgb(0, 0, 0)" fill-opacity="1.000000" />
<path d="M 55.892578 46.335938 L 55.892578 45.412109 L 62.729980 45.412109 L 62.729980 46.335938 Z " fill="rgb(0, 0, 0)" fill-opacity="1.000000" />
<path d="M 62.892578 46.335938 L 62.892578 45.412109 L 69.729980 45.412109 L 69.729980 46.335938 Z " fill="rgb(0, 0, 0)" fill-opacity="1.000000" />
<path d="M 69.892578 46.335938 L 69.892578 45.412109 L 76.729980 45.412109 L 76.729980 46.335938 Z " fill="rgb(0, 0, 0)" fill-opacity="1.000000" />
<path d="M 76.892578 46.335938 L 76.892578 45.412109 L 83.729980 45.412109 L 83.729980 46.335938 Z " fill="rgb(0, 0, 0)" fill-opacity="1.000000" />
<path d="M 83.892578 46.335938 L 83.892578 45.412109 L 90.729980 45.412109 L 90.729980 46.335938 Z " fill="rgb(0, 0, 0)" fill-opacity="1.000000" />
<path d="M 90.892578 46.335938 L 90.892578 45.412109 L 97.729980 45.412109 L 97.729980 46.335938 Z " fill="rgb(0, 0, 0)" fill-opacity="1.000000" />
<path d="M 97.892578 46.335938 L 97.892578 45.412109 L 104.729980 45.412109 L 104.729980 46.335938 Z " fill="rgb(0, 0, 0)" fill-opacity="1.000000" />
<path d="M 104.892578 46.335938 L 104.892578 45.412109 L 111.729980 45.412109 L 111.729980 46.335938 Z " fill="rgb(0, 0, 0)" fill-opacity="1.000000" />
<path d="M 111.892578 46.335938 L 111.892578 45.412109 L 118.729980 45.412109 L 118.729980 46.335938 Z " fill="rgb(0, 0, 0)" fill-opacity="1.000000" />
<path d="M 118.892578 46.335938 L 118.892578 45.412109 L 121.878906 45.412109 L 121.878906 38.300781 L 122.738281 38.300781 L 122.738281 46.335938 Z " fill="rgb(0, 0, 0)" fill-opacity="1.000000" />
<path d="M 198.878906 46.335938 L 198.878906 38.300781 L 199.738281 38.300781 L 199.738281 45.412109 L 202.729980 45.412109 L 202.729980 46.335938 Z " fill="rgb(0, 0, 0)" fill-opacity="1.000000" />
<path d="M 202.892578 46.335938 L 202.892578 45.412109 L 209.729980 45.412109 L 209.729980 46.335938 Z " fill="rgb(0, 0, 0)" fill-opacity="1.000000" />
<path d="M 209.892578 46.335938 L 209.892578 45.412109 L 216.729980 45.412109 L 216.729980 46.335938 Z " fill="rgb(0, 0, 0)" fill-opacity="1.000000" />
<path d="M 216.892578 46.335938 L 216.892578 45.412109 L 223.729980 45.412109 L 223.729980 46.335938 Z " fill="rgb(0, 0, 0)" fill-opacity="1.000000" />
<path d="M 223.892578 46.335938 L 223.892578 45.412109 L 230.729980 45.412109 L 230.729980 46.335938 Z " fill="rgb(0, 0, 0)" fill-opacity="1.000000" />
<path d="M 230.892578 46.335938 L 230.892578 45.412109 L 237.729980 45.412109 L 237.729980 46.335938 Z " fill="rgb(0, 0, 0)" fill-opacity="1.000000" />
<path d="M 237.892578 46.335938 L 237.892578 45.412109 L 244.729980 45.412109 L 244.729980 46.335938 Z " fill="rgb(0, 0, 0)" fill-opacity="1.000000" />
<path d="M 244.892578 46.335938 L 244.892578 45.412109 L 251.729980 45.412109 L 251.729980 46.335938 Z " fill="rgb(0, 0, 0)" fill-opacity="1.000000" />
<path d="M 251.892578 46.335938 L 251.892578 45.412109 L 258.729980 45.412109 L 258.729980 46.335938 Z " fill="rgb(0, 0, 0)" fill-opacity="1.000000" />
<path d="M 258.892578 46.335938 L 258.892578 45.412109 L 265.729980 45.412109 L 265.729980 46.335938 Z " fill="rgb(0, 0, 0)" fill-opacity="1.000000" />
<path d="M 265.892578 46.335938 L 265.892578 45.412109 L 272.729980 45.412109 L 272.729980 46.335938 Z " fill="rgb(0, 0, 0)" fill-opacity="1.000000" />
<path d="M 272.892578 46.335938 L 272.892578 45.412109 L 279.729980 45.412109 L 279.729980 46.335938 Z " fill="rgb(0, 0, 0)" fill-opacity="1.000000" />
<path d="M 279.892578 46.335938 L 279.892578 45.412109 L 286.729980 45.412109 L 286.729980 46.335938 Z " fill="rgb(0, 0, 0)" fill-opacity="1.000000" />
<path d="M 286.892578 46.335938 L 286.892578 45.412109 L 293.729980 45.412109 L 293.729980 46.335938 Z " fill="rgb(0, 0, 0)" fill-opacity="1.000000" />
<path d="M 293.892578 46.335938 L 293.892578 45.412109 L 300.729980 45.412109 L 300.729980 46.335938 Z " fill="rgb(0, 0, 0)" fill-opacity="1.000000" />
<path d="M 300.892578 46.335938 L 300.892578 45.412109 L 307.729980 45.412109 L 307.729980 46.335938 Z " fill="rgb(0, 0, 0)" fill-opacity="1.000000" />
<path d="M 307.892578 46.335938 L 307.892578 45.412109 L 314.729980 45.412109 L 314.729980 46.335938 Z " fill="rgb(0, 0, 0)" fill-opacity="1.000000" />
<path d="M 314.892578 46.335938 L 314.892578 45.412109 L 317.878906 45.412109 L 317.878906 38.300781 L 318.738281 38.300781 L 318.738281 46.335938 Z " fill="rgb(0, 0, 0)" fill-opacity="1.000000" />
<path d="M 37.341797 35.108398 Q 38.711426 35.108398 39.253906 34.434326 Q 39.796387 33.760254 39.796387 31.998535 Q 39.796387 30.220703 39.256592 29.546631 Q 38.716797 28.872559 37.341797 28.872559 L 36.826172 28.872559 L 36.826172 35.108398 Z M 37.363281 27.980957 Q 39.200195 27.980957 40.070312 28.958496 Q 40.940430 29.936035 40.940430 31.998535 Q 40.940430 34.050293 40.070312 35.025146 Q 39.200195 36.000000 37.363281 36.000000 L 35.735840 36.000000 L 35.735840 27.980957 Z " fill="rgb(0, 0, 0)" fill-opacity="1.000000" />
<path d="M 45.308594 30.677246 Q 44.556641 30.677246 44.169922 31.262695 Q 43.783203 31.848145 43.783203 32.997559 Q 43.783203 34.141602 44.169922 34.729736 Q 44.556641 35.317871 45.308594 35.317871 Q 46.065918 35.317871 46.452637 34.729736 Q 46.839355 34.141602 46.839355 32.997559 Q 46.839355 31.848145 46.452637 31.262695 Q 46.065918 30.677246 45.308594 30.677246 Z M 45.308594 29.839355 Q 46.560059 29.839355 47.223389 30.650391 Q 47.886719 31.461426 47.886719 32.997559 Q 47.886719 34.539062 47.226074 35.347412 Q 46.565430 36.155762 45.308594 36.155762 Q 44.057129 36.155762 43.396484 35.347412 Q 42.735840 34.539062 42.735840 32.997559 Q 42.735840 31.461426 43.396484 30.650391 Q 44.057129 29.839355 45.308594 29.839355 Z " fill="rgb(0, 0, 0)" fill-opacity="1.000000" />
<path d="M 52.630859 30.596680 Q 52.813477 30.209961 53.095459 30.024658 Q 53.377441 29.839355 53.774902 29.839355 Q 54.500000 29.839355 54.798096 30.400635 Q 55.096191 30.961914 55.096191 32.514160 L 55.096191 36.000000 L 54.193848 36.000000 L 54.193848 32.557129 Q 54.193848 31.284180 54.051514 30.975342 Q 53.909180 30.666504 53.533203 30.666504 Q 53.103516 30.666504 52.945068 30.996826 Q 52.786621 31.327148 52.786621 32.557129 L 52.786621 36.000000 L 51.884277 36.000000 L 51.884277 32.557129 Q 51.884277 31.268066 51.731201 30.967285 Q 51.578125 30.666504 51.180664 30.666504 Q 50.788574 30.666504 50.635498 30.996826 Q 50.482422 31.327148 50.482422 32.557129 L 50.482422 36.000000 L 49.585449 36.000000 L 49.585449 29.984375 L 50.482422 29.984375 L 50.482422 30.500000 Q 50.659668 30.177734 50.925537 30.008545 Q 51.191406 29.839355 51.529785 29.839355 Q 51.937988 29.839355 52.209229 30.027344 Q 52.480469 30.215332 52.630859 30.596680 Z " fill="rgb(0, 0, 0)" fill-opacity="1.000000" />
<path d="M 59.770508 32.976074 L 59.442871 32.976074 Q 58.578125 32.976074 58.140381 33.279541 Q 57.702637 33.583008 57.702637 34.184570 Q 57.702637 34.727051 58.030273 35.027832 Q 58.357910 35.328613 58.937988 35.328613 Q 59.754395 35.328613 60.221680 34.761963 Q 60.688965 34.195312 60.694336 33.196289 L 60.694336 32.976074 Z M 61.687988 32.567871 L 61.687988 36.000000 L 60.694336 36.000000 L 60.694336 35.108398 Q 60.377441 35.645508 59.896729 35.900635 Q 59.416016 36.155762 58.728516 36.155762 Q 57.810059 36.155762 57.262207 35.637451 Q 56.714355 35.119141 56.714355 34.249023 Q 56.714355 33.244629 57.388428 32.723633 Q 58.062500 32.202637 59.367676 32.202637 L 60.694336 32.202637 L 60.694336 32.046875 Q 60.688965 31.327148 60.329102 31.002197 Q 59.969238 30.677246 59.179688 30.677246 Q 58.674805 30.677246 58.159180 30.822266 Q 57.643555 30.967285 57.154785 31.246582 L 57.154785 30.258301 Q 57.702637 30.048828 58.204834 29.944092 Q 58.707031 29.839355 59.179688 29.839355 Q 59.926270 29.839355 60.455322 30.059570 Q 60.984375 30.279785 61.312012 30.720215 Q 61.516113 30.988770 61.602051 31.383545 Q 61.687988 31.778320 61.687988 32.567871 Z " fill="rgb(0, 0, 0)" fill-opacity="1.000000" />
<path d="M 64.697266 30.005859 L 67.227051 30.005859 L 67.227051 35.231934 L 69.187500 35.231934 L 69.187500 36.000000 L 64.278320 36.000000 L 64.278320 35.231934 L 66.238770 35.231934 L 66.238770 30.773926 L 64.697266 30.773926 Z M 66.238770 27.669434 L 67.227051 27.669434 L 67.227051 28.915527 L 66.238770 28.915527 Z " fill="rgb(0, 0, 0)" fill-opacity="1.000000" />
<path d="M 75.645020 32.272461 L 75.645020 36.000000 L 74.651367 36.000000 L 74.651367 32.272461 Q 74.651367 31.461426 74.366699 31.080078 Q 74.082031 30.698730 73.475098 30.698730 Q 72.782227 30.698730 72.408936 31.190186 Q 72.035645 31.681641 72.035645 32.600098 L 72.035645 36.000000 L 71.047363 36.000000 L 71.047363 29.984375 L 72.035645 29.984375 L 72.035645 30.886719 Q 72.298828 30.371094 72.750000 30.105225 Q 73.201172 29.839355 73.818848 29.839355 Q 74.737305 29.839355 75.191162 30.443604 Q 75.645020 31.047852 75.645020 32.272461 Z " fill="rgb(0, 0, 0)" fill-opacity="1.000000" />
<path d="M 87.308594 28.937012 L 86.164551 33.040527 L 88.452637 33.040527 Z M 86.653320 27.980957 L 87.969238 27.980957 L 90.423828 36.000000 L 89.301270 36.000000 L 88.710449 33.910645 L 85.901367 33.910645 L 85.321289 36.000000 L 84.198730 36.000000 Z " fill="rgb(0, 0, 0)" fill-opacity="1.000000" />
<path d="M 121.878906 39.319336 L 121.878906 25.300781 L 122.738281 25.300781 L 122.738281 39.319336 Z " fill="rgb(0, 0, 0)" fill-opacity="1.000000" />
<path d="M 125.892578 33.335938 L 125.892578 32.412109 L 132.729980 32.412109 L 132.729980 33.335938 Z " fill="rgb(78, 143, 0)" fill-opacity="1.000000" />
<path d="M 132.892578 33.335938 L 132.892578 32.412109 L 139.729980 32.412109 L 139.729980 33.335938 Z " fill="rgb(78, 143, 0)" fill-opacity="1.000000" />
<path d="M 139.892578 33.335938 L 139.892578 32.412109 L 146.729980 32.412109 L 146.729980 33.335938 Z " fill="rgb(78, 143, 0)" fill-opacity="1.000000" />
<path d="M 146.892578 33.335938 L 146.892578 32.412109 L 153.729980 32.412109 L 153.729980 33.335938 Z " fill="rgb(78, 143, 0)" fill-opacity="1.000000" />
<path d="M 153.892578 33.335938 L 153.892578 32.412109 L 160.729980 32.412109 L 160.729980 33.335938 Z " fill="rgb(78, 143, 0)" fill-opacity="1.000000" />
<path d="M 160.892578 33.335938 L 160.892578 32.412109 L 167.729980 32.412109 L 167.729980 33.335938 Z " fill="rgb(78, 143, 0)" fill-opacity="1.000000" />
<path d="M 167.892578 33.335938 L 167.892578 32.412109 L 174.729980 32.412109 L 174.729980 33.335938 Z " fill="rgb(78, 143, 0)" fill-opacity="1.000000" />
<path d="M 174.892578 33.335938 L 174.892578 32.412109 L 181.729980 32.412109 L 181.729980 33.335938 Z " fill="rgb(78, 143, 0)" fill-opacity="1.000000" />
<path d="M 181.892578 33.335938 L 181.892578 32.412109 L 188.729980 32.412109 L 188.729980 33.335938 Z " fill="rgb(78, 143, 0)" fill-opacity="1.000000" />
<path d="M 189.032227 36.418945 L 189.032227 29.866211 L 195.590332 33.142578 Z " fill="rgb(78, 143, 0)" fill-opacity="1.000000" />
<path d="M 198.878906 39.319336 L 198.878906 25.300781 L 199.738281 25.300781 L 199.738281 39.319336 Z " fill="rgb(0, 0, 0)" fill-opacity="1.000000" />
<path d="M 233.341797 35.108398 Q 234.711426 35.108398 235.253906 34.434326 Q 235.796387 33.760254 235.796387 31.998535 Q 235.796387 30.220703 235.256592 29.546631 Q 234.716797 28.872559 233.341797 28.872559 L 232.826172 28.872559 L 232.826172 35.108398 Z M 233.363281 27.980957 Q 235.200195 27.980957 236.070312 28.958496 Q 236.940430 29.936035 236.940430 31.998535 Q 236.940430 34.050293 236.070312 35.025146 Q 235.200195 36.000000 233.363281 36.000000 L 231.735840 36.000000 L 231.735840 27.980957 Z " fill="rgb(0, 0, 0)" fill-opacity="1.000000" />
<path d="M 241.308594 30.677246 Q 240.556641 30.677246 240.169922 31.262695 Q 239.783203 31.848145 239.783203 32.997559 Q 239.783203 34.141602 240.169922 34.729736 Q 240.556641 35.317871 241.308594 35.317871 Q 242.065918 35.317871 242.452637 34.729736 Q 242.839355 34.141602 242.839355 32.997559 Q 242.839355 31.848145 242.452637 31.262695 Q 242.065918 30.677246 241.308594 30.677246 Z M 241.308594 29.839355 Q 242.560059 29.839355 243.223389 30.650391 Q 243.886719 31.461426 243.886719 32.997559 Q 243.886719 34.539062 243.226074 35.347412 Q 242.565430 36.155762 241.308594 36.155762 Q 240.057129 36.155762 239.396484 35.347412 Q 238.735840 34.539062 238.735840 32.997559 Q 238.735840 31.461426 239.396484 30.650391 Q 240.057129 29.839355 241.308594 29.839355 Z " fill="rgb(0, 0, 0)" fill-opacity="1.000000" />
<path d="M 248.630859 30.596680 Q 248.813477 30.209961 249.095459 30.024658 Q 249.377441 29.839355 249.774902 29.839355 Q 250.500000 29.839355 250.798096 30.400635 Q 251.096191 30.961914 251.096191 32.514160 L 251.096191 36.000000 L 250.193848 36.000000 L 250.193848 32.557129 Q 250.193848 31.284180 250.051514 30.975342 Q 249.909180 30.666504 249.533203 30.666504 Q 249.103516 30.666504 248.945068 30.996826 Q 248.786621 31.327148 248.786621 32.557129 L 248.786621 36.000000 L 247.884277 36.000000 L 247.884277 32.557129 Q 247.884277 31.268066 247.731201 30.967285 Q 247.578125 30.666504 247.180664 30.666504 Q 246.788574 30.666504 246.635498 30.996826 Q 246.482422 31.327148 246.482422 32.557129 L 246.482422 36.000000 L 245.585449 36.000000 L 245.585449 29.984375 L 246.482422 29.984375 L 246.482422 30.500000 Q 246.659668 30.177734 246.925537 30.008545 Q 247.191406 29.839355 247.529785 29.839355 Q 247.937988 29.839355 248.209229 30.027344 Q 248.480469 30.215332 248.630859 30.596680 Z " fill="rgb(0, 0, 0)" fill-opacity="1.000000" />
<path d="M 255.770508 32.976074 L 255.442871 32.976074 Q 254.578125 32.976074 254.140381 33.279541 Q 253.702637 33.583008 253.702637 34.184570 Q 253.702637 34.727051 254.030273 35.027832 Q 254.357910 35.328613 254.937988 35.328613 Q 255.754395 35.328613 256.221680 34.761963 Q 256.688965 34.195312 256.694336 33.196289 L 256.694336 32.976074 Z M 257.687988 32.567871 L 257.687988 36.000000 L 256.694336 36.000000 L 256.694336 35.108398 Q 256.377441 35.645508 255.896729 35.900635 Q 255.416016 36.155762 254.728516 36.155762 Q 253.810059 36.155762 253.262207 35.637451 Q 252.714355 35.119141 252.714355 34.249023 Q 252.714355 33.244629 253.388428 32.723633 Q 254.062500 32.202637 255.367676 32.202637 L 256.694336 32.202637 L 256.694336 32.046875 Q 256.688965 31.327148 256.329102 31.002197 Q 255.969238 30.677246 255.179688 30.677246 Q 254.674805 30.677246 254.159180 30.822266 Q 253.643555 30.967285 253.154785 31.246582 L 253.154785 30.258301 Q 253.702637 30.048828 254.204834 29.944092 Q 254.707031 29.839355 255.179688 29.839355 Q 255.926270 29.839355 256.455322 30.059570 Q 256.984375 30.279785 257.312012 30.720215 Q 257.516113 30.988770 257.602051 31.383545 Q 257.687988 31.778320 257.687988 32.567871 Z " fill="rgb(0, 0, 0)" fill-opacity="1.000000" />
<path d="M 260.697266 30.005859 L 263.227051 30.005859 L 263.227051 35.231934 L 265.187500 35.231934 L 265.187500 36.000000 L 260.278320 36.000000 L 260.278320 35.231934 L 262.238770 35.231934 L 262.238770 30.773926 L 260.697266 30.773926 Z M 262.238770 27.669434 L 263.227051 27.669434 L 263.227051 28.915527 L 262.238770 28.915527 Z " fill="rgb(0, 0, 0)" fill-opacity="1.000000" />
<path d="M 271.645020 32.272461 L 271.645020 36.000000 L 270.651367 36.000000 L 270.651367 32.272461 Q 270.651367 31.461426 270.366699 31.080078 Q 270.082031 30.698730 269.475098 30.698730 Q 268.782227 30.698730 268.408936 31.190186 Q 268.035645 31.681641 268.035645 32.600098 L 268.035645 36.000000 L 267.047363 36.000000 L 267.047363 29.984375 L 268.035645 29.984375 L 268.035645 30.886719 Q 268.298828 30.371094 268.750000 30.105225 Q 269.201172 29.839355 269.818848 29.839355 Q 270.737305 29.839355 271.191162 30.443604 Q 271.645020 31.047852 271.645020 32.272461 Z " fill="rgb(0, 0, 0)" fill-opacity="1.000000" />
<path d="M 281.981934 31.955566 L 281.981934 35.108398 L 283.265625 35.108398 Q 284.210938 35.108398 284.613770 34.778076 Q 285.016602 34.447754 285.016602 33.690430 Q 285.016602 32.691406 284.592285 32.323486 Q 284.167969 31.955566 283.265625 31.955566 Z M 281.981934 28.872559 L 281.981934 31.074707 L 283.244141 31.074707 Q 284.028320 31.074707 284.380127 30.773926 Q 284.731934 30.473145 284.731934 30.016602 Q 284.731934 29.409668 284.385498 29.141113 Q 284.039062 28.872559 283.244141 28.872559 Z M 280.891602 27.980957 L 283.265625 27.980957 Q 284.495605 27.980957 285.161621 28.512695 Q 285.827637 29.044434 285.827637 30.016602 Q 285.827637 30.537598 285.475830 30.961914 Q 285.124023 31.386230 284.420410 31.493652 Q 285.209961 31.611816 285.658447 32.167725 Q 286.106934 32.723633 286.106934 33.797852 Q 286.106934 34.888184 285.392578 35.444092 Q 284.678223 36.000000 283.265625 36.000000 L 280.891602 36.000000 Z " fill="rgb(0, 0, 0)" fill-opacity="1.000000" />
<path d="M 317.878906 39.319336 L 317.878906 25.300781 L 318.738281 25.300781 L 318.738281 39.319336 Z " fill="rgb(0, 0, 0)" fill-opacity="1.000000" />
<path d="M 6.892578 20.335938 L 6.892578 19.412109 L 13.729980 19.412109 L 13.729980 20.335938 Z " fill="rgb(0, 0, 0)" fill-opacity="1.000000" />
<path d="M 13.892578 20.335938 L 13.892578 19.412109 L 20.729980 19.412109 L 20.729980 20.335938 Z " fill="rgb(0, 0, 0)" fill-opacity="1.000000" />
<path d="M 20.892578 20.335938 L 20.892578 19.412109 L 27.729980 19.412109 L 27.729980 20.335938 Z " fill="rgb(0, 0, 0)" fill-opacity="1.000000" />
<path d="M 27.892578 20.335938 L 27.892578 19.412109 L 34.729980 19.412109 L 34.729980 20.335938 Z " fill="rgb(0, 0, 0)" fill-opacity="1.000000" />
<path d="M 34.892578 20.335938 L 34.892578 19.412109 L 41.729980 19.412109 L 41.729980 20.335938 Z " fill="rgb(0, 0, 0)" fill-opacity="1.000000" />
<path d="M 41.892578 20.335938 L 41.892578 19.412109 L 48.729980 19.412109 L 48.729980 20.335938 Z " fill="rgb(0, 0, 0)" fill-opacity="1.000000" />
<path d="M 48.892578 20.335938 L 48.892578 19.412109 L 55.729980 19.412109 L 55.729980 20.335938 Z " fill="rgb(0, 0, 0)" fill-opacity="1.000000" />
<path d="M 55.892578 20.335938 L 55.892578 19.412109 L 62.729980 19.412109 L 62.729980 20.335938 Z " fill="rgb(0, 0, 0)" fill-opacity="1.000000" />
<path d="M 62.892578 20.335938 L 62.892578 19.412109 L 69.729980 19.412109 L 69.729980 20.335938 Z " fill="rgb(0, 0, 0)" fill-opacity="1.000000" />
<path d="M 69.892578 20.335938 L 69.892578 19.412109 L 76.729980 19.412109 L 76.729980 20.335938 Z " fill="rgb(0, 0, 0)" fill-opacity="1.000000" />
<path d="M 76.892578 20.335938 L 76.892578 19.412109 L 83.729980 19.412109 L 83.729980 20.335938 Z " fill="rgb(0, 0, 0)" fill-opacity="1.000000" />
<path d="M 83.892578 20.335938 L 83.892578 19.412109 L 90.729980 19.412109 L 90.729980 20.335938 Z " fill="rgb(0, 0, 0)" fill-opacity="1.000000" />
<path d="M 90.892578 20.335938 L 90.892578 19.412109 L 97.729980 19.412109 L 97.729980 20.335938 Z " fill="rgb(0, 0, 0)" fill-opacity="1.000000" />
<path d="M 97.892578 20.335938 L 97.892578 19.412109 L 104.729980 19.412109 L 104.729980 20.335938 Z " fill="rgb(0, 0, 0)" fill-opacity="1.000000" />
<path d="M 104.892578 20.335938 L 104.892578 19.412109 L 111.729980 19.412109 L 111.729980 20.335938 Z " fill="rgb(0, 0, 0)" fill-opacity="1.000000" />
<path d="M 111.892578 20.335938 L 111.892578 19.412109 L 118.729980 19.412109 L 118.729980 20.335938 Z " fill="rgb(0, 0, 0)" fill-opacity="1.000000" />
<path d="M 121.878906 26.319336 L 121.878906 20.335938 L 118.892578 20.335938 L 118.892578 19.412109 L 122.738281 19.412109 L 122.738281 26.319336 Z " fill="rgb(0, 0, 0)" fill-opacity="1.000000" />
<path d="M 198.878906 26.319336 L 198.878906 19.412109 L 202.729980 19.412109 L 202.729980 20.335938 L 199.738281 20.335938 L 199.738281 26.319336 Z " fill="rgb(0, 0, 0)" fill-opacity="1.000000" />
<path d="M 202.892578 20.335938 L 202.892578 19.412109 L 209.729980 19.412109 L 209.729980 20.335938 Z " fill="rgb(0, 0, 0)" fill-opacity="1.000000" />
<path d="M 209.892578 20.335938 L 209.892578 19.412109 L 216.729980 19.412109 L 216.729980 20.335938 Z " fill="rgb(0, 0, 0)" fill-opacity="1.000000" />
<path d="M 216.892578 20.335938 L 216.892578 19.412109 L 223.729980 19.412109 L 223.729980 20.335938 Z " fill="rgb(0, 0, 0)" fill-opacity="1.000000" />
<path d="M 223.892578 20.335938 L 223.892578 19.412109 L 230.729980 19.412109 L 230.729980 20.335938 Z " fill="rgb(0, 0, 0)" fill-opacity="1.000000" />
<path d="M 230.892578 20.335938 L 230.892578 19.412109 L 237.729980 19.412109 L 237.729980 20.335938 Z " fill="rgb(0, 0, 0)" fill-opacity="1.000000" />
<path d="M 237.892578 20.335938 L 237.892578 19.412109 L 244.729980 19.412109 L 244.729980 20.335938 Z " fill="rgb(0, 0, 0)" fill-opacity="1.000000" />
<path d="M 244.892578 20.335938 L 244.892578 19.412109 L 251.729980 19.412109 L 251.729980 20.335938 Z " fill="rgb(0, 0, 0)" fill-opacity="1.000000" />
<path d="M 251.892578 20.335938 L 251.892578 19.412109 L 258.729980 19.412109 L 258.729980 20.335938 Z " fill="rgb(0, 0, 0)" fill-opacity="1.000000" />
<path d="M 258.892578 20.335938 L 258.892578 19.412109 L 265.729980 19.412109 L 265.729980 20.335938 Z " fill="rgb(0, 0, 0)" fill-opacity="1.000000" />
<path d="M 265.892578 20.335938 L 265.892578 19.412109 L 272.729980 19.412109 L 272.729980 20.335938 Z " fill="rgb(0, 0, 0)" fill-opacity="1.000000" />
<path d="M 272.892578 20.335938 L 272.892578 19.412109 L 279.729980 19.412109 L 279.729980 20.335938 Z " fill="rgb(0, 0, 0)" fill-opacity="1.000000" />
<path d="M 279.892578 20.335938 L 279.892578 19.412109 L 286.729980 19.412109 L 286.729980 20.335938 Z " fill="rgb(0, 0, 0)" fill-opacity="1.000000" />
<path d="M 286.892578 20.335938 L 286.892578 19.412109 L 293.729980 19.412109 L 293.729980 20.335938 Z " fill="rgb(0, 0, 0)" fill-opacity="1.000000" />
<path d="M 293.892578 20.335938 L 293.892578 19.412109 L 300.729980 19.412109 L 300.729980 20.335938 Z " fill="rgb(0, 0, 0)" fill-opacity="1.000000" />
<path d="M 300.892578 20.335938 L 300.892578 19.412109 L 307.729980 19.412109 L 307.729980 20.335938 Z " fill="rgb(0, 0, 0)" fill-opacity="1.000000" />
<path d="M 307.892578 20.335938 L 307.892578 19.412109 L 314.729980 19.412109 L 314.729980 20.335938 Z " fill="rgb(0, 0, 0)" fill-opacity="1.000000" />
<path d="M 317.878906 26.319336 L 317.878906 20.335938 L 314.892578 20.335938 L 314.892578 19.412109 L 318.738281 19.412109 L 318.738281 26.319336 Z " fill="rgb(0, 0, 0)" fill-opacity="1.000000" />
<path d="M 152.929688 9.339355 Q 152.494629 9.742188 151.949463 9.948975 Q 151.404297 10.155762 150.770508 10.155762 Q 149.245117 10.155762 148.396484 9.062744 Q 147.547852 7.969727 147.547852 5.998535 Q 147.547852 4.032715 148.407227 2.934326 Q 149.266602 1.835938 150.797363 1.835938 Q 151.302246 1.835938 151.764160 1.978271 Q 152.226074 2.120605 152.655762 2.410645 L 152.655762 3.522461 Q 152.220703 3.108887 151.764160 2.912842 Q 151.307617 2.716797 150.797363 2.716797 Q 149.739258 2.716797 149.210205 3.535889 Q 148.681152 4.354980 148.681152 5.998535 Q 148.681152 7.668945 149.194092 8.471924 Q 149.707031 9.274902 150.770508 9.274902 Q 151.130371 9.274902 151.401611 9.191650 Q 151.672852 9.108398 151.893066 8.931152 L 151.893066 6.777344 L 150.727539 6.777344 L 150.727539 5.885742 L 152.929688 5.885742 Z " fill="rgb(78, 143, 0)" fill-opacity="1.000000" />
<path d="M 158.860840 5.998535 Q 158.860840 4.231445 158.498291 3.474121 Q 158.135742 2.716797 157.308594 2.716797 Q 156.486816 2.716797 156.124268 3.474121 Q 155.761719 4.231445 155.761719 5.998535 Q 155.761719 7.760254 156.124268 8.517578 Q 156.486816 9.274902 157.308594 9.274902 Q 158.135742 9.274902 158.498291 8.520264 Q 158.860840 7.765625 158.860840 5.998535 Z M 159.994141 5.998535 Q 159.994141 8.093262 159.330811 9.124512 Q 158.667480 10.155762 157.308594 10.155762 Q 155.949707 10.155762 155.289062 9.129883 Q 154.628418 8.104004 154.628418 5.998535 Q 154.628418 3.898438 155.291748 2.867188 Q 155.955078 1.835938 157.308594 1.835938 Q 158.667480 1.835938 159.330811 2.867188 Q 159.994141 3.898438 159.994141 5.998535 Z " fill="rgb(78, 143, 0)" fill-opacity="1.000000" />
<path d="M 165.860840 5.998535 Q 165.860840 4.231445 165.498291 3.474121 Q 165.135742 2.716797 164.308594 2.716797 Q 163.486816 2.716797 163.124268 3.474121 Q 162.761719 4.231445 162.761719 5.998535 Q 162.761719 7.760254 163.124268 8.517578 Q 163.486816 9.274902 164.308594 9.274902 Q 165.135742 9.274902 165.498291 8.520264 Q 165.860840 7.765625 165.860840 5.998535 Z M 166.994141 5.998535 Q 166.994141 8.093262 166.330811 9.124512 Q 165.667480 10.155762 164.308594 10.155762 Q 162.949707 10.155762 162.289062 9.129883 Q 161.628418 8.104004 161.628418 5.998535 Q 161.628418 3.898438 162.291748 2.867188 Q 162.955078 1.835938 164.308594 1.835938 Q 165.667480 1.835938 166.330811 2.867188 Q 166.994141 3.898438 166.994141 5.998535 Z " fill="rgb(78, 143, 0)" fill-opacity="1.000000" />
<path d="M 170.341797 9.108398 Q 171.711426 9.108398 172.253906 8.434326 Q 172.796387 7.760254 172.796387 5.998535 Q 172.796387 4.220703 172.256592 3.546631 Q 171.716797 2.872559 170.341797 2.872559 L 169.826172 2.872559 L 169.826172 9.108398 Z M 170.363281 1.980957 Q 172.200195 1.980957 173.070312 2.958496 Q 173.940430 3.936035 173.940430 5.998535 Q 173.940430 8.050293 173.070312 9.025146 Q 172.200195 10.000000 170.363281 10.000000 L 168.735840 10.000000 L 168.735840 1.980957 Z " fill="rgb(78, 143, 0)" fill-opacity="1.000000" />
</svg>